<svg id="Layer_1" data-name="Layer 1" xmlns="http://www.w3.org/2000/svg" xmlns:xlink="http://www.w3.org/1999/xlink" viewBox="0 0 5325.12 3134.07"><defs><clipPath id="clip-path" transform="translate(-119.12 -69.89)"><path d="M2972.67,2618.65c7.73-9.57,12.68-15.73,17.67-21.86,96.9-119,176.66-248.42,235.57-390.36,31.77-76.52,55.74-155.36,69.4-237.15,14.83-88.72,16.44-177.59,1.34-266.47-4.61-27.09-13.83-52.74-25.86-77.41-17.62-36.14-40.37-68.91-65.67-100-27-33.14-56.48-63.88-87.3-93.4-61.68-59.06-127.86-112.86-194.25-166.42q-56-45.18-111.86-90.55c-52.08-42.3-97.41-90.79-134.4-146.9a603.78,603.78,0,0,1-92.82-238.26c-11.86-73-10.85-145.85-.86-218.92,11-80.44,34.68-157.11,66.74-231.45,38.27-88.75,82-174.82,128.53-259.44,2.09-3.79,3-9,9.29-10.18,3.93,56.11,24.25,107.33,47.16,157.52a1824,1824,0,0,0,226.21,371c57.29,72.88,119,141.94,182.25,209.6,60.54,64.72,121.51,129,181.58,194.19,52,56.36,101.05,115.19,145.73,177.57,56.12,78.36,103.14,161.61,135.81,252.56a904.61,904.61,0,0,1,46.89,199.81,1033.94,1033.94,0,0,1,7.17,147.56c-6,243.56-100.57,445-287.38,602.33-90,75.8-191.45,132.5-300.34,176.29-61.27,24.63-124,44.56-188.58,58.78C2982.18,2617.7,2979.56,2617.8,2972.67,2618.65Z" style="fill:none"/></clipPath><clipPath id="clip-path-2" transform="translate(-119.12 -69.89)"><path d="M2807.8,2622.6c3.76-14.71,7.81-29.36,11.23-44.15,11-47.68,14.27-96.12,13.09-144.88-2.35-96.81-22.94-190.13-55.09-281.11-15-42.43-37.38-80.92-64.22-116.9A734.16,734.16,0,0,0,2613,1926.68c-48.21-43-97.34-85-146.52-127-50.73-43.23-101.6-86.27-148.4-133.85-41.24-41.92-79-86.65-110.39-136.51-43.29-68.68-71.16-143-80-223.8-8.83-80.3-4.44-159.69,23.32-236.54,16.6-46,39.38-88.81,66-129.7,45.32-69.61,99.55-131.79,159.34-189.18,22.58-21.67,46.4-42,69.76-62.9,4.88-4.36,10.21-8.22,15.88-12.74,2.92,6.49-.95,10-2.72,13.86a487.61,487.61,0,0,0-40,135.56q-21.49,151.53,53.39,285.31c23,41,52,77.34,84.85,110.71,38,38.54,79.64,72.86,122.77,105.38,52.14,39.32,104.83,77.91,156.91,117.3,44.68,33.8,87.55,69.78,126.81,109.87,30.86,31.51,58.84,65.33,82.23,102.83Q3113.95,1764,3114.63,1892c.44,75.33-13.17,148.4-34.3,220.28-26.6,90.44-64.47,176.23-108.78,259.27a1958.18,1958.18,0,0,1-151.27,239.81c-3.1,4.22-6.55,8.18-9.84,12.27Z" style="fill:none"/></clipPath><clipPath id="clip-path-3" transform="translate(-119.12 -69.89)"><path d="M1984.1,1190.27c3.73,6.42-.79,11.56-2.95,16.83a431.87,431.87,0,0,0-24.55,80c-18.27,91.74-5,178.76,38.76,261.26a423.74,423.74,0,0,0,52.4,77.73c61.21,71.35,124.85,140.44,196.31,201.78,28.8,24.73,58.67,48.21,88.51,71.69,64.13,50.45,122,107.44,175.28,169,61.78,71.31,101.62,154.14,125.15,245.08,20.52,79.29,27.45,160,23.14,241.63-1.16,21.85-2,43.91-7.52,65.11-15,3.77-32.61,3.8-53.79.72-46.29-6.72-91.23-18.83-135.5-33.63-94.34-31.52-185.8-69.57-271.56-120.41-58.1-34.45-112.07-74.38-160.52-121.58-85.42-83.21-143.38-182.84-177.62-296.66-16.53-54.95-27.61-111.08-36-167.74-5.57-37.52-11.27-75-14-112.93-2.94-40.08-1.36-80,3.48-119.65,20.29-166.21,85.65-314.93,177.67-453.12a48.4,48.4,0,0,1,3.85-4.52Z" style="fill:none"/></clipPath></defs><path d="M2972.67,2618.65c7.73-9.57,12.68-15.73,17.67-21.86,96.9-119,176.66-248.42,235.57-390.36,31.77-76.52,55.74-155.36,69.4-237.15,14.83-88.72,16.44-177.59,1.34-266.47-4.61-27.09-13.83-52.74-25.86-77.41-17.62-36.14-40.37-68.91-65.67-100-27-33.14-56.48-63.88-87.3-93.4-61.68-59.06-127.86-112.86-194.25-166.42q-56-45.18-111.86-90.55c-52.08-42.3-97.41-90.79-134.4-146.9a603.78,603.78,0,0,1-92.82-238.26c-11.86-73-10.85-145.85-.86-218.92,11-80.44,34.68-157.11,66.74-231.45,38.27-88.75,82-174.82,128.53-259.44,2.09-3.79,3-9,9.29-10.18,3.93,56.11,24.25,107.33,47.16,157.52a1824,1824,0,0,0,226.21,371c57.29,72.88,119,141.94,182.25,209.6,60.54,64.72,121.51,129,181.58,194.19,52,56.36,101.05,115.19,145.73,177.57,56.12,78.36,103.14,161.61,135.81,252.56a904.61,904.61,0,0,1,46.89,199.81,1033.94,1033.94,0,0,1,7.17,147.56c-6,243.56-100.57,445-287.38,602.33-90,75.8-191.45,132.5-300.34,176.29-61.27,24.63-124,44.56-188.58,58.78C2982.18,2617.7,2979.56,2617.8,2972.67,2618.65Z" transform="translate(-119.12 -69.89)" style="fill:#41b7b9"/><path d="M2807.8,2622.65c3.76-14.71,7.81-29.36,11.23-44.15,11-47.68,14.27-96.13,13.09-144.89-2.35-96.8-22.94-190.12-55.09-281.1-15-42.43-37.38-80.92-64.22-116.91A734.59,734.59,0,0,0,2613,1926.73c-48.21-43-97.34-85-146.52-127-50.73-43.24-101.6-86.27-148.4-133.85-41.24-41.92-79-86.65-110.39-136.51-43.29-68.68-71.16-143.05-80-223.8-8.83-80.3-4.44-159.69,23.32-236.54,16.6-46,39.38-88.82,66-129.7,45.32-69.61,99.55-131.79,159.34-189.18,22.58-21.67,46.4-42,69.76-62.9,4.88-4.36,10.21-8.22,15.88-12.74,2.92,6.49-.95,10-2.72,13.85a487.81,487.81,0,0,0-40,135.56q-21.49,151.54,53.39,285.32c23,41,52,77.34,84.85,110.71,38,38.54,79.64,72.86,122.77,105.38,52.14,39.32,104.83,77.9,156.91,117.3,44.68,33.8,87.55,69.78,126.81,109.87,30.86,31.51,58.84,65.33,82.23,102.82q67.78,108.67,68.47,236.72c.44,75.33-13.17,148.4-34.3,220.27-26.6,90.45-64.47,176.24-108.78,259.28a1958.18,1958.18,0,0,1-151.27,239.81c-3.1,4.22-6.55,8.18-9.84,12.26Z" transform="translate(-119.12 -69.89)" style="fill:#814c1a"/><path d="M1984.1,1190.27c3.73,6.42-.79,11.56-2.95,16.83a431.87,431.87,0,0,0-24.55,80c-18.27,91.74-5,178.76,38.76,261.26a423.74,423.74,0,0,0,52.4,77.73c61.21,71.35,124.85,140.44,196.31,201.78,28.8,24.73,58.67,48.21,88.51,71.69,64.13,50.45,122,107.44,175.28,169,61.78,71.31,101.62,154.14,125.15,245.08,20.52,79.29,27.45,160,23.14,241.63-1.16,21.85-2,43.91-7.52,65.11-15,3.77-32.61,3.8-53.79.72-46.29-6.72-91.23-18.83-135.5-33.63-94.34-31.52-185.8-69.57-271.56-120.41-58.1-34.45-112.07-74.38-160.52-121.58-85.42-83.21-143.38-182.84-177.62-296.66-16.53-54.95-27.61-111.08-36-167.74-5.57-37.52-11.27-75-14-112.93-2.94-40.08-1.36-80,3.48-119.65,20.29-166.21,85.65-314.93,177.67-453.12a48.4,48.4,0,0,1,3.85-4.52Z" transform="translate(-119.12 -69.89)" style="fill:#1f859b"/><path d="M1984.56,1190.87l2.68-2.69.42,3c-1.17-.26-2.33-.52-3.53-.83C1984.1,1190.27,1984.56,1190.87,1984.56,1190.87Z" transform="translate(-119.12 -69.89)"/><g style="clip-path:url(#clip-path)"><path d="M2810.63,2696.41c7.73-9.57,12.68-15.73,17.67-21.86,96.9-119,176.66-248.42,235.57-390.36,31.77-76.52,55.74-155.36,69.4-237.15,14.83-88.72,16.44-177.59,1.34-266.47-4.61-27.09-13.83-52.74-25.86-77.41-17.62-36.14-40.37-68.91-65.67-100-27-33.14-56.48-63.88-87.3-93.4-61.68-59.06-127.86-112.86-194.25-166.42q-56-45.18-111.86-90.55c-52.08-42.3-97.41-90.79-134.4-146.9a603.78,603.78,0,0,1-92.82-238.26c-11.86-72.95-10.85-145.85-.86-218.92,11-80.44,34.68-157.11,66.74-231.45,38.27-88.75,82-174.82,128.53-259.44,2.09-3.79,3-9,9.29-10.18,3.93,56.11,24.25,107.33,47.16,157.52a1824,1824,0,0,0,226.21,371c57.29,72.88,119,141.94,182.25,209.6,60.54,64.72,121.51,129,181.58,194.19,52,56.36,101.05,115.19,145.73,177.57,56.12,78.36,103.14,161.61,135.81,252.56a904.61,904.61,0,0,1,46.89,199.81A1033.94,1033.94,0,0,1,3599,1857.5c-6,243.56-100.57,445-287.38,602.33-90,75.8-191.45,132.5-300.34,176.29-61.27,24.63-124,44.56-188.58,58.78C2820.14,2695.46,2817.52,2695.56,2810.63,2696.41Z" transform="translate(-119.12 -69.89)" style="fill:#4cc3c7"/></g><g style="clip-path:url(#clip-path-2)"><path d="M2600.44,2639.65c3.76-14.71,7.81-29.36,11.23-44.15,11-47.68,14.27-96.13,13.09-144.89-2.35-96.8-22.94-190.12-55.09-281.1-15-42.43-37.38-80.92-64.22-116.91a734.59,734.59,0,0,0-99.83-108.87c-48.21-43-97.34-85-146.52-127-50.73-43.24-101.6-86.27-148.4-133.85-41.24-41.92-79-86.65-110.39-136.51-43.29-68.68-71.16-143.05-80-223.8-8.83-80.3-4.44-159.69,23.32-236.54,16.6-46,39.38-88.82,66-129.7,45.32-69.61,99.55-131.79,159.34-189.18,22.58-21.67,46.4-42,69.76-62.9,4.88-4.36,10.21-8.22,15.88-12.74,2.92,6.49-1,10-2.72,13.85a487.81,487.81,0,0,0-40,135.56q-21.49,151.54,53.39,285.32c23,41,52,77.34,84.85,110.71,38,38.54,79.64,72.86,122.77,105.38,52.14,39.32,104.83,77.9,156.91,117.3,44.68,33.8,87.55,69.78,126.81,109.87,30.86,31.51,58.84,65.33,82.23,102.82q67.78,108.67,68.47,236.72c.44,75.33-13.17,148.4-34.3,220.27-26.6,90.45-64.47,176.24-108.78,259.28a1958.18,1958.18,0,0,1-151.27,239.81c-3.1,4.22-6.55,8.18-9.84,12.26Z" transform="translate(-119.12 -69.89)" style="fill:#95591d"/></g><g style="clip-path:url(#clip-path-3)"><path d="M1772.38,1190.27c3.73,6.42-.79,11.56-3,16.83a431.87,431.87,0,0,0-24.55,80c-18.27,91.74-5,178.76,38.76,261.26a423.74,423.74,0,0,0,52.4,77.73c61.21,71.35,124.85,140.44,196.31,201.78,28.8,24.73,58.67,48.21,88.51,71.69,64.13,50.45,122,107.44,175.28,169,61.78,71.31,101.62,154.14,125.15,245.08,20.52,79.29,27.45,160,23.14,241.63-1.16,21.85-2,43.91-7.52,65.11-15,3.77-32.61,3.8-53.79.72-46.29-6.72-91.23-18.83-135.5-33.63-94.34-31.52-185.8-69.57-271.56-120.41-58.1-34.45-112.07-74.38-160.52-121.58-85.42-83.21-143.38-182.84-177.62-296.66-16.53-54.95-27.61-111.08-36-167.74-5.57-37.52-11.27-75-14.05-112.93-2.94-40.08-1.36-80,3.48-119.65,20.29-166.21,85.65-314.93,177.67-453.12a48.4,48.4,0,0,1,3.85-4.52Z" transform="translate(-119.12 -69.89)" style="fill:#2290a9"/></g><path d="M311.12,2906.76h60v215.6c0,41.6,24,44.8,63.2,44.8h5.2c39.2,0,63.6-3.2,63.6-44.8V2954c0-16.8-2-28.4-9.2-47.2h60.4c6.8,17.6,8.8,29.6,8.8,47.2v168.4c0,76-56.8,81.6-120.8,81.6h-10.4c-35.2,0-68-1.2-90.8-16-23.2,14.8-56,16-90.8,16h-10.4c-64,0-120.8-5.6-120.8-81.6V2954c0-17.6,1.2-29.2,8.4-47.2h60.8c-7.6,19.6-9.2,30.8-9.2,47.2v168.4c0,41.6,24,44.8,63.2,44.8h5.2c39.2,0,63.6-3.2,63.6-44.8Z" transform="translate(-119.12 -69.89)" style="fill:#fff"/><path d="M1153.84,2906.76v36.8H1035V3204H975v-260.4H856.24v-36.8Z" transform="translate(-119.12 -69.89)" style="fill:#fff"/><path d="M2382.3,3204h-60v-131.2l-108.8-115.2c-16.4-17.6-18.8-31.2-18.8-50.8h60c0,9.6,1.6,17.2,6,21.2l91.6,98.4,92-98.4c4.4-4,6-11.6,6-21.2h60c0,20-2,33.6-18.39,50.8l-109.6,115.2Z" transform="translate(-119.12 -69.89)" style="fill:#fff"/><path d="M2736.4,2906.76c64,0,120.4,5.6,120.8,81.6v3.6c-.4,32-9.6,51.2-26.4,63.2,16.8,12,26,31.6,26.4,63.2v4c-.4,76-56.8,81.6-120.8,81.6H2559.6v-297.2Zm-116.8,130h114c39.6,0,62.8-3.6,63.6-44.8v-3.6c-.8-41.6-24-44.8-63.6-44.8h-114Zm0,130.4h114c39.6,0,62.8-3.2,63.6-44.8v-4c-.8-41.2-24-44.8-63.6-44.8h-114Z" transform="translate(-119.12 -69.89)" style="fill:#fff"/><path d="M3529.76,3167.16V3204h-177.6c-40.4,0-93.6,0-93.6-70.8v-226.4h60v224.4c0,36,22,36,40,36Z" transform="translate(-119.12 -69.89)" style="fill:#fff"/><path d="M3735.57,3027.16v.4c-32.8-20.8-48-38-48-67.6,0-30.8,24.4-53.2,81.19-53.2H3964v36.8H3769.57c-14,0-21.2,8-21.2,16.8,0,6.8,3.59,13.6,10.8,18l167.59,105.2c32.8,20.8,48.8,37.6,48.8,67.2,0,30.8-24.8,53.2-81.6,53.2H3699.17v-36.8h194c14,0,20.8-7.6,20.8-16.4a20.72,20.72,0,0,0-10.4-18Z" transform="translate(-119.12 -69.89)" style="fill:#fff"/><path d="M4299.24,2906.76v36.8h-118.8V3204h-60v-260.4h-118.8v-36.8Z" transform="translate(-119.12 -69.89)" style="fill:#fff"/><path d="M4618.48,3122.36c0,76-56.8,81.6-120.8,81.6h-56c-64,0-120.8-5.6-120.8-81.6V2954c0-17.6,2-29.6,8.8-47.2h60.8c-8,19.6-9.6,30.8-9.6,47.2v168.4c0,41.6,24.4,44.8,63.6,44.8h50.8c39.2,0,63.2-3.2,63.2-44.8V2954c0-16.8-2-28.4-8.8-47.2h60.4c6.4,17.6,8.4,29.6,8.4,47.2Z" transform="translate(-119.12 -69.89)" style="fill:#fff"/><path d="M4970.24,3122.36c0,76-56.8,81.6-120.8,81.6h-176.8v-297.2h176.8c64,0,120.8,5.6,120.8,81.6Zm-123.6,44.8c39.6,0,63.6-3.2,63.6-44.8v-134c0-41.6-24-44.8-63.6-44.8h-114v223.6Z" transform="translate(-119.12 -69.89)" style="fill:#fff"/><path d="M5013.32,2906.76h60V3204h-60Z" transform="translate(-119.12 -69.89)" style="fill:#fff"/><path d="M5129.05,2988c0-75.6,56.79-81.2,120.79-81.2h74c63.6,0,120.4,5.6,120.4,81.2v134.4c0,76.4-56.8,81.6-120.4,81.6h-74c-64,0-120.79-5.2-120.79-81.6Zm192,179.6c39.2,0,63.2-3.2,63.2-45.2V2988c0-41.6-24-44.4-63.2-44.4h-68.8c-39.2,0-63.2,2.8-63.2,44.4v134.4c0,42,24,45.2,63.2,45.2Z" transform="translate(-119.12 -69.89)" style="fill:#fff"/><path d="M794.87,3203.2c-1-8.17-1.93-14.54-3-21.88a73.68,73.68,0,0,0-4.63-16.05c-9.36-24.07-18.76-48.13-28-72.24q-26.57-69.12-53-138.3c-5.41-14.09-10.9-28.13-16.29-42.22-.72-1.86-1.95-3.65-1.41-6.05a13.05,13.05,0,0,1,2.39-.42c8.89.09,17.8-.07,26.67.43,16.35.92,29.13,8.39,38.35,21.94a94.19,94.19,0,0,1,9.68,19.36q17.8,46.29,35.68,92.54,21.09,54.64,42.18,109.3c4.17,10.81,8,21.73,9.6,33.27.79,5.93,1.09,10.93,1.55,16.91a23.21,23.21,0,0,1-.24,3.29c-6.8,1-13.38.37-19.93.47s-13.24.08-19.85,0S801.43,3204,794.87,3203.2Z" transform="translate(-119.12 -69.89)" style="fill:#fff"/><path d="M658.2,3040.41c1.18,1.45,2,2.34,2.7,3.34,13.83,19.83,27,40.05,38.61,61.29a194.44,194.44,0,0,1,13.23,28.64c1.63,4.68,3.08,9.41,3.25,14.44a43.07,43.07,0,0,1-6.09,23.67c-9.63,16.29-24,26.16-42.56,29-23.92,3.62-43.31-5.45-58.63-23.59a44,44,0,0,1-10-23.63,31.22,31.22,0,0,1,1.4-14,150.53,150.53,0,0,1,7.22-18.41c4.9-9.77,10.18-19.37,15.76-28.77,9.82-16.52,20.72-32.33,32-47.9C655.89,3043.27,656.82,3042.17,658.2,3040.41Z" transform="translate(-119.12 -69.89)" style="fill:#1f859b"/><rect x="1074" y="2837.23" width="258" height="63.4" style="fill:#4cc3c7"/><rect x="1074" y="2953.75" width="258" height="63.4" style="fill:#814c1a"/><rect x="1074" y="3070.26" width="258" height="63.4" style="fill:#1f859b"/><path d="M1763.7,3203.12c-.17-1.75-.33-3.57-.54-5.38-.84-7.17-3.48-13.2-9.06-18.28q-49.57-45.06-98.76-90.56a54,54,0,0,0-36.21-15c-10.08-.31-20.18-.1-30.26-.09a13.34,13.34,0,0,0-2.2.35c-1.48,2.06-.94,4.19-1,6.18,0,12.76,0,25.52,0,38.28q0,38.89,0,77.79c0,2.23-.1,4.47-.15,6.85a18.3,18.3,0,0,1-3.3.64q-26.55,0-53.11,0a23.12,23.12,0,0,1-2.76-.37c-.19-1.22-.45-2.37-.53-3.52s0-2.47,0-3.71q0-75.93,0-151.87c0-2.41-.29-4.88.59-7.62,2.57-.07,5-.21,7.42-.21h160c6.38,0,12.78.19,19.14-.21,6.76-.42,13.49-1.37,20.22-2.21a33.67,33.67,0,0,0,5.39-1.33c12-3.62,19.85-11.47,22.79-23.7a79.23,79.23,0,0,0-.29-39.09c-3.07-11.71-10.58-19.23-22.13-22.8a75.32,75.32,0,0,0-18.81-3.2c-7.4-.33-14.82-.44-22.23-.5-10.09-.08-20.17,0-30.26,0q-67-.06-134-.14c-2.43,0-4.94.52-7.23-.71-.73-4.93-.77-29.46,0-35.45,1.06-.15,2.22-.39,3.39-.46,1.44-.09,2.88,0,4.32,0q84.62,0,169.23,0c13.18,0,26.35.07,39.48,1.38,10.88,1.09,21.64,2.71,32.07,6.11,2.15.69,4.28,1.46,6.38,2.29,20.65,8.1,33.89,22.83,39.09,44.43a122.22,122.22,0,0,1-.48,60.47c-5.14,19.51-17.21,33.35-35.79,41.45a108.39,108.39,0,0,1-31.53,8.22c-9.81,1.08-19.69,1.57-29.53,2.33l-3.09.26c-.21,2.22,1.56,2.92,2.65,3.93q24.08,22.18,48.23,44.26c10.77,9.88,21.6,19.69,32.28,29.67a100.75,100.75,0,0,1,9.68,10.35,45.89,45.89,0,0,1,9.87,24.25c.5,4.7.71,9.43,1,14.15a16.84,16.84,0,0,1-.36,3,13.32,13.32,0,0,1-2.57.54q-27.48,0-55-.07A7.19,7.19,0,0,1,1763.7,3203.12Z" transform="translate(-119.12 -69.89)" style="fill:#fff"/><path d="M1874.68,3036.88h8.18q81.63,0,163.27-.05c8.86,0,17.72-.52,26.56-1a60,60,0,0,0,17.48-3.66,30.9,30.9,0,0,0,19.48-20.12,66,66,0,0,0,2.92-17.62,80.32,80.32,0,0,0-1.81-22.72c-3.06-13.27-11.19-21.65-24.37-25.24-9.24-2.52-18.72-2.8-28.19-3.24-4.93-.23-9.89-.13-14.84-.13l-160.8-.08c-2.43,0-4.87-.1-7.36-.16-1.21-3.15-.6-6-.7-8.87-.11-3.08,0-6.18,0-9.27,0-2.89-.06-5.77,0-8.65s-.33-5.72.45-8.82a41.66,41.66,0,0,1,4.3-.51c4.33-.07,8.66,0,13,0q79.17,0,158.33,0c10.1,0,20.21.1,30.3.57,13.6.64,27.13,2.1,40.24,6a110.37,110.37,0,0,1,12.75,4.66c18.12,8,29.86,21.71,34.89,40.8a120.89,120.89,0,0,1,0,62.34c-5.07,19.35-17.05,33-35.36,41.16a114.56,114.56,0,0,1-28.47,8c-18,2.91-36.14,3.06-54.27,3.12-36.08.13-72.16,0-108.24.05-2.42,0-4.89-.25-7.45.53-.8,2.56-.53,5-.53,7.45q0,57.18,0,114.37c0,2.45-.12,4.89-.19,7.51a12.14,12.14,0,0,1-2.58.64q-27.21,0-54.42,0a15,15,0,0,1-2.13-.37,33.39,33.39,0,0,1-.6-3.42c-.11-1.43,0-2.88,0-4.32q0-75.43,0-150.85C1874.49,3042.56,1874.6,3040.12,1874.68,3036.88Z" transform="translate(-119.12 -69.89)" style="fill:#fff"/><path d="M3218.15,3203.81c-19.8.28-39.26.07-59,.15a36.53,36.53,0,0,1-.61-4,114.94,114.94,0,0,0-8.27-39c-8.83-22.13-17.18-44.46-25.74-66.7q-26.79-69.6-53.57-139.2c-1.11-2.9-2.27-5.73-4.44-8-4.42-4.67-9.18-4.43-12.86.89a28.88,28.88,0,0,0-2.88,6.1c-9.83,25.5-19.55,51-29.42,76.52-11.44,29.5-23.06,58.92-34.48,88.43-6.3,16.28-12.4,32.64-18.49,49a90.23,90.23,0,0,0-5.06,24c-.31,3.68-.61,7.36-.93,11.24a19.51,19.51,0,0,1-3.09.57q-26.24,0-52.45,0c-1,0-2-.18-3.33-.32a35.89,35.89,0,0,1-.43-4.27A120.52,120.52,0,0,1,2910,3160c5-13.9,10.31-27.72,15.62-41.53q32.43-84.27,65-168.5c1.84-4.78,3.9-9.5,6.17-14.1a56.9,56.9,0,0,1,10.33-14.52,45.44,45.44,0,0,1,26.45-13.45,101.81,101.81,0,0,1,13.51-1.08c9-.16,18.1-.09,27.15,0a78.5,78.5,0,0,1,17.73,2.05,45.81,45.81,0,0,1,24.31,14.89,72.6,72.6,0,0,1,12.66,21.73q8.58,22.13,17.1,44.27,30.74,79.65,61.46,159.29c4.15,10.75,7.85,21.62,9.63,33.07C3218.16,3188.85,3218.75,3198,3218.15,3203.81Z" transform="translate(-119.12 -69.89)" style="fill:#fff"/></svg>