<svg id="Layer_1" data-name="Layer 1" xmlns="http://www.w3.org/2000/svg" xmlns:xlink="http://www.w3.org/1999/xlink" viewBox="0 0 2174.93 2626.52"><defs><clipPath id="clip-path" transform="translate(-1641.32 -423.89)"><path d="M3027.63,2972.65c7.73-9.57,12.68-15.73,17.67-21.86,96.9-119,176.66-248.42,235.58-390.36,31.76-76.52,55.73-155.36,69.4-237.15,14.82-88.72,16.43-177.59,1.33-266.47-4.6-27.09-13.83-52.74-25.86-77.41-17.62-36.14-40.37-68.91-65.67-100-26.95-33.14-56.47-63.88-87.3-93.4-61.68-59.06-127.86-112.86-194.25-166.42q-56-45.18-111.86-90.55c-52.08-42.3-97.41-90.79-134.4-146.9a604.08,604.08,0,0,1-92.82-238.26c-11.85-73-10.84-145.85-.85-218.92,11-80.44,34.67-157.11,66.73-231.45,38.27-88.75,82-174.82,128.54-259.44,2.08-3.79,3-9,9.28-10.18,3.94,56.11,24.25,107.33,47.17,157.52a1823.56,1823.56,0,0,0,226.2,371c57.3,72.88,119,141.94,182.25,209.6,60.54,64.72,121.51,129,181.58,194.19,52,56.36,101.05,115.19,145.74,177.57,56.11,78.36,103.14,161.61,135.8,252.56a904,904,0,0,1,46.89,199.81,1033.94,1033.94,0,0,1,7.17,147.56c-6,243.56-100.57,445-287.38,602.33-90,75.8-191.45,132.5-300.34,176.29-61.26,24.63-124,44.56-188.58,58.78C3037.14,2971.7,3034.53,2971.8,3027.63,2972.65Z" style="fill:none"/></clipPath><clipPath id="clip-path-2" transform="translate(-1641.32 -423.89)"><path d="M2862.76,2976.6c3.76-14.71,7.81-29.36,11.23-44.15,11-47.68,14.28-96.12,13.09-144.88-2.35-96.81-22.94-190.13-55.09-281.11-15-42.43-37.38-80.92-64.22-116.9A734.1,734.1,0,0,0,2668,2280.68c-48.21-43-97.35-85-146.53-127-50.73-43.23-101.6-86.27-148.4-133.85-41.24-41.92-79-86.65-110.39-136.51-43.28-68.68-71.16-143-80-223.8-8.83-80.3-4.44-159.69,23.32-236.54,16.6-46,39.38-88.81,66-129.7,45.33-69.61,99.55-131.79,159.34-189.18,22.58-21.67,46.41-42,69.77-62.9,4.88-4.36,10.2-8.22,15.87-12.74,2.93,6.49-.95,10-2.72,13.86a487.59,487.59,0,0,0-40,135.56q-21.51,151.53,53.38,285.31c23,41,52,77.34,84.86,110.71,38,38.54,79.64,72.86,122.76,105.38,52.14,39.32,104.83,77.91,156.91,117.3,44.68,33.8,87.55,69.78,126.81,109.87,30.86,31.51,58.85,65.33,82.23,102.83Q3168.91,2118,3169.59,2246c.45,75.33-13.17,148.4-34.3,220.28-26.6,90.44-64.46,176.23-108.78,259.27a1958.11,1958.11,0,0,1-151.26,239.81c-3.11,4.22-6.56,8.18-9.85,12.27Z" style="fill:none"/></clipPath><clipPath id="clip-path-3" transform="translate(-1641.32 -423.89)"><path d="M2039.07,1544.27c3.72,6.42-.79,11.56-3,16.83a432.63,432.63,0,0,0-24.55,80c-18.27,91.74-5,178.76,38.77,261.26a423.19,423.19,0,0,0,52.39,77.73c61.22,71.35,124.85,140.44,196.31,201.78,28.8,24.73,58.68,48.21,88.52,71.69,64.12,50.45,122,107.44,175.28,169,61.77,71.31,101.61,154.14,125.14,245.08,20.52,79.29,27.46,160,23.14,241.63-1.16,21.85-2,43.91-7.51,65.11-15,3.77-32.61,3.8-53.8.72-46.29-6.72-91.23-18.83-135.5-33.63-94.34-31.52-185.79-69.57-271.55-120.41-58.11-34.45-112.08-74.38-160.53-121.58-85.42-83.21-143.37-182.84-177.62-296.66-16.53-54.95-27.61-111.08-36-167.74-5.58-37.52-11.28-75-14.06-112.93-2.94-40.08-1.35-80,3.49-119.65,20.28-166.21,85.64-314.93,177.66-453.12a47,47,0,0,1,3.86-4.52Z" style="fill:none"/></clipPath></defs><path d="M3027.63,2972.65c7.73-9.57,12.68-15.73,17.67-21.86,96.9-119,176.66-248.42,235.58-390.36,31.76-76.52,55.73-155.36,69.4-237.15,14.82-88.72,16.43-177.59,1.33-266.47-4.6-27.09-13.83-52.74-25.86-77.41-17.62-36.14-40.37-68.91-65.67-100-26.95-33.14-56.47-63.88-87.3-93.4-61.68-59.06-127.86-112.86-194.25-166.42q-56-45.18-111.86-90.55c-52.08-42.3-97.41-90.79-134.4-146.9a604.08,604.08,0,0,1-92.82-238.26c-11.85-73-10.84-145.85-.85-218.92,11-80.44,34.67-157.11,66.73-231.45,38.27-88.75,82-174.82,128.54-259.44,2.08-3.79,3-9,9.28-10.18,3.94,56.11,24.25,107.33,47.17,157.52a1823.56,1823.56,0,0,0,226.2,371c57.3,72.88,119,141.94,182.25,209.6,60.54,64.72,121.51,129,181.58,194.19,52,56.36,101.05,115.19,145.74,177.57,56.11,78.36,103.14,161.61,135.8,252.56a904,904,0,0,1,46.89,199.81,1033.94,1033.94,0,0,1,7.17,147.56c-6,243.56-100.57,445-287.38,602.33-90,75.8-191.45,132.5-300.34,176.29-61.26,24.63-124,44.56-188.58,58.78C3037.14,2971.7,3034.53,2971.8,3027.63,2972.65Z" transform="translate(-1641.32 -423.89)" style="fill:#41b7b9"/><path d="M2862.76,2976.65c3.76-14.71,7.81-29.36,11.23-44.15,11-47.68,14.28-96.13,13.09-144.89-2.35-96.8-22.94-190.12-55.09-281.1-15-42.43-37.38-80.92-64.22-116.91A734.52,734.52,0,0,0,2668,2280.73c-48.21-43-97.35-85.05-146.53-127-50.73-43.24-101.6-86.27-148.4-133.85-41.24-41.92-79-86.65-110.39-136.51-43.28-68.68-71.16-143.05-80-223.8-8.83-80.3-4.44-159.69,23.32-236.54,16.6-46,39.38-88.82,66-129.7,45.33-69.61,99.55-131.79,159.34-189.18,22.58-21.67,46.41-42.05,69.77-62.9,4.88-4.36,10.2-8.22,15.87-12.74,2.93,6.49-.95,10-2.72,13.85a487.79,487.79,0,0,0-40,135.56q-21.51,151.55,53.38,285.32c23,41,52,77.34,84.86,110.71,38,38.54,79.64,72.86,122.76,105.38,52.14,39.32,104.83,77.9,156.91,117.3,44.68,33.8,87.55,69.78,126.81,109.87,30.86,31.51,58.85,65.33,82.23,102.82q67.78,108.67,68.47,236.72c.45,75.33-13.17,148.4-34.3,220.27-26.6,90.45-64.46,176.24-108.78,259.28a1958.11,1958.11,0,0,1-151.26,239.81c-3.11,4.22-6.56,8.18-9.85,12.26Z" transform="translate(-1641.32 -423.89)" style="fill:#814c1a"/><path d="M2039.07,1544.27c3.72,6.42-.79,11.56-3,16.83a432.63,432.63,0,0,0-24.55,80c-18.27,91.74-5,178.76,38.77,261.26a423.19,423.19,0,0,0,52.39,77.73c61.22,71.35,124.85,140.44,196.31,201.78,28.8,24.73,58.68,48.21,88.52,71.69,64.12,50.45,122,107.44,175.28,169,61.77,71.31,101.61,154.14,125.14,245.08,20.52,79.29,27.46,160,23.14,241.63-1.16,21.85-2,43.91-7.51,65.11-15,3.77-32.61,3.8-53.8.72-46.29-6.72-91.23-18.83-135.5-33.63-94.34-31.52-185.79-69.57-271.55-120.41-58.11-34.45-112.08-74.38-160.53-121.58-85.42-83.21-143.37-182.84-177.62-296.66-16.53-54.95-27.61-111.08-36-167.74-5.58-37.52-11.28-75-14.06-112.93-2.94-40.08-1.35-80,3.49-119.65,20.28-166.21,85.64-314.93,177.66-453.12a47,47,0,0,1,3.86-4.52Z" transform="translate(-1641.32 -423.89)" style="fill:#1f859b"/><path d="M2039.53,1544.87l2.67-2.69.42,3c-1.16-.26-2.33-.52-3.52-.83C2039.07,1544.27,2039.53,1544.87,2039.53,1544.87Z" transform="translate(-1641.32 -423.89)"/><g style="clip-path:url(#clip-path)"><path d="M2865.59,3050.41c7.73-9.57,12.68-15.73,17.67-21.86,96.9-119,176.66-248.42,235.58-390.36,31.76-76.52,55.73-155.36,69.4-237.15,14.82-88.72,16.43-177.59,1.33-266.47-4.6-27.09-13.83-52.74-25.86-77.41-17.62-36.14-40.37-68.91-65.67-100-26.95-33.14-56.47-63.88-87.3-93.4-61.68-59.06-127.86-112.86-194.25-166.42q-56-45.18-111.86-90.55c-52.08-42.3-97.41-90.79-134.4-146.9a604.08,604.08,0,0,1-92.82-238.26c-11.85-73-10.84-145.85-.85-218.92,11-80.44,34.67-157.11,66.73-231.45,38.27-88.75,81.95-174.82,128.54-259.44,2.08-3.79,3-9,9.28-10.18,3.94,56.11,24.25,107.33,47.17,157.52a1823.56,1823.56,0,0,0,226.2,371c57.3,72.88,119,141.94,182.25,209.6,60.54,64.72,121.51,129,181.58,194.19,52,56.36,101.05,115.19,145.74,177.57,56.11,78.36,103.14,161.61,135.8,252.56a904,904,0,0,1,46.89,199.81,1033.94,1033.94,0,0,1,7.17,147.56c-6,243.56-100.57,445-287.38,602.33-90,75.8-191.45,132.5-300.34,176.29-61.26,24.63-124,44.56-188.58,58.78C2875.1,3049.46,2872.49,3049.56,2865.59,3050.41Z" transform="translate(-1641.32 -423.89)" style="fill:#4cc3c7"/></g><g style="clip-path:url(#clip-path-2)"><path d="M2655.4,2993.65c3.76-14.71,7.81-29.36,11.23-44.15,11-47.68,14.28-96.13,13.09-144.89-2.35-96.8-22.94-190.12-55.09-281.1-15-42.43-37.38-80.92-64.22-116.91a734.52,734.52,0,0,0-99.82-108.87c-48.21-43-97.35-85.05-146.53-127-50.73-43.24-101.6-86.27-148.4-133.85-41.24-41.92-79-86.65-110.39-136.51-43.28-68.68-71.16-143.05-80-223.8-8.83-80.3-4.44-159.69,23.32-236.54,16.6-46,39.38-88.82,66-129.7,45.33-69.61,99.55-131.79,159.34-189.18,22.58-21.67,46.41-42.05,69.77-62.9,4.88-4.36,10.2-8.22,15.87-12.74,2.93,6.49-1,10-2.72,13.85a487.79,487.79,0,0,0-40,135.56q-21.51,151.55,53.38,285.32c23,41,52,77.34,84.86,110.71,38,38.54,79.64,72.86,122.76,105.38,52.14,39.32,104.83,77.9,156.91,117.3,44.68,33.8,87.55,69.78,126.81,109.87,30.86,31.51,58.85,65.33,82.23,102.82q67.78,108.67,68.47,236.72c.45,75.33-13.17,148.4-34.3,220.27-26.6,90.45-64.46,176.24-108.78,259.28a1958.11,1958.11,0,0,1-151.26,239.81c-3.11,4.22-6.56,8.18-9.85,12.26Z" transform="translate(-1641.32 -423.89)" style="fill:#95591d"/></g><g style="clip-path:url(#clip-path-3)"><path d="M1827.35,1544.27c3.72,6.42-.79,11.56-3,16.83a432.63,432.63,0,0,0-24.55,80c-18.27,91.74-5,178.76,38.77,261.26a423.19,423.19,0,0,0,52.39,77.73c61.22,71.35,124.85,140.44,196.31,201.78,28.8,24.73,58.68,48.21,88.52,71.69,64.12,50.45,122,107.44,175.28,169,61.77,71.31,101.61,154.14,125.14,245.08,20.52,79.29,27.46,160,23.14,241.63-1.16,21.85-2,43.91-7.51,65.11-15,3.77-32.61,3.8-53.8.72-46.29-6.72-91.23-18.83-135.5-33.63-94.34-31.52-185.79-69.57-271.55-120.41-58.11-34.45-112.08-74.38-160.53-121.58-85.42-83.21-143.37-182.84-177.62-296.66-16.53-54.95-27.61-111.08-36-167.74-5.58-37.52-11.28-75-14.06-112.93-2.94-40.08-1.35-80,3.49-119.65,20.28-166.21,85.64-314.93,177.66-453.12a47,47,0,0,1,3.86-4.52Z" transform="translate(-1641.32 -423.89)" style="fill:#2290a9"/></g></svg>